<?xml version="1.0" encoding="iso-8859-1"?>
<!-- Generator: Adobe Illustrator 19.0.0, SVG Export Plug-In . SVG Version: 6.00 Build 0)  -->
<svg version="1.1" id="Layer_1" xmlns="http://www.w3.org/2000/svg" xmlns:xlink="http://www.w3.org/1999/xlink" x="0px" y="0px"
	 viewBox="0 0 512.154 512.154" style="enable-background:new 0 0 512.154 512.154;" xml:space="preserve">
<g transform="translate(1 1)">
	<g>
		<path style="fill:#FFDD09;" d="M374.544,97.21l-34.133,51.2h-17.067v34.133h-8.533v128c45.227-0.853,57.173,1.707,59.733,0
			c23.04-11.947,31.573-36.693,41.813-60.587L476.944,97.21H374.544z"/>
		<path style="fill:#FFDD09;" d="M186.81,182.544L186.81,182.544V148.41h-17.067l-34.133-51.2H33.21l60.587,152.747
			c9.387,24.747,26.453,48.64,50.347,60.587c2.56,1.707,5.973-0.853,42.667,0V182.544z"/>
		<path style="fill:#FFDD09;" d="M358.33,293.477c10.24-17.92,16.213-37.547,16.213-59.733c0-65.707-53.76-119.467-119.467-119.467
			S135.61,168.037,135.61,233.744c0,22.187,5.973,41.813,16.213,59.733H358.33z"/>
	</g>
	<path style="fill:#54C9FD;" d="M207.29,293.477h96.427c17.067-14.507,29.013-35.84,29.013-59.733c0-42.667-34.133-76.8-76.8-76.8
		s-76.8,34.133-76.8,76.8C178.277,258.49,189.37,279.824,207.29,293.477"/>
	<path style="fill:#FFFFFF;" d="M93.797,249.957L33.21,97.21H7.61l60.587,152.747c9.387,24.747,27.307,45.227,50.347,57.173
		c2.56,1.707,5.12,2.56,7.68,3.413v-15.36C112.57,283.237,101.477,267.877,93.797,249.957"/>
	<path style="fill:#FD9808;" d="M476.944,97.21l-60.587,152.747c-7.68,17.92-18.773,33.28-33.28,45.227v15.36
		c2.56-0.853,5.12-2.56,7.68-3.413c23.04-11.947,40.96-33.28,50.347-57.173l61.44-152.747H476.944z"/>
	<g>
		<polygon style="fill:#1CD759;" points="75.877,378.81 434.277,378.81 434.277,293.477 75.877,293.477 		"/>
		<polygon style="fill:#1CD759;" points="101.477,378.81 101.477,327.61 33.21,327.61 67.344,370.277 33.21,412.944 
			101.477,412.944 		"/>
	</g>
	<polygon style="fill:#FFFFFF;" points="33.21,327.61 7.61,327.61 41.744,370.277 7.61,412.944 33.21,412.944 67.344,370.277 	"/>
	<polygon style="fill:#1CD759;" points="408.677,378.81 408.677,327.61 476.944,327.61 442.81,370.277 476.944,412.944 
		408.677,412.944 	"/>
	<polygon style="fill:#15A143;" points="476.944,327.61 502.544,327.61 468.41,370.277 502.544,412.944 476.944,412.944 
		442.81,370.277 	"/>
	<path style="fill:#110E0E;" d="M212.41,242.277c-5.12,0-8.533-3.413-8.533-8.533c0-28.16,23.04-51.2,51.2-51.2
		c5.12,0,8.533,3.413,8.533,8.533c0,5.12-3.413,8.533-8.533,8.533c-18.773,0-34.133,15.36-34.133,34.133
		C220.944,238.864,217.53,242.277,212.41,242.277z"/>
	<path d="M67.344,139.877h-46.08c-5.12,0-8.533-3.413-8.533-8.533c0-5.12,3.413-8.533,8.533-8.533h46.08
		c5.12,0,8.533,3.413,8.533,8.533C75.877,136.464,72.464,139.877,67.344,139.877z"/>
	<path d="M75.877,174.01h-40.96c-5.12,0-8.533-3.413-8.533-8.533c0-5.12,3.413-8.533,8.533-8.533h40.96
		c5.12,0,8.533,3.413,8.533,8.533C84.41,170.597,80.997,174.01,75.877,174.01z"/>
	<path d="M92.944,208.144H48.57c-5.12,0-8.533-3.413-8.533-8.533c0-5.12,3.413-8.533,8.533-8.533h44.373
		c5.12,0,8.533,3.413,8.533,8.533C101.477,204.73,98.064,208.144,92.944,208.144z"/>
	<path d="M488.89,139.877h-46.08c-5.12,0-8.533-3.413-8.533-8.533c0-5.12,3.413-8.533,8.533-8.533h46.08
		c5.12,0,8.533,3.413,8.533,8.533C497.424,136.464,494.01,139.877,488.89,139.877z"/>
	<path d="M475.237,174.01h-40.96c-5.12,0-8.533-3.413-8.533-8.533c0-5.12,3.413-8.533,8.533-8.533h40.96
		c5.12,0,8.533,3.413,8.533,8.533C483.77,170.597,480.357,174.01,475.237,174.01z"/>
	<path d="M461.584,208.144H417.21c-5.12,0-8.533-3.413-8.533-8.533c0-5.12,3.413-8.533,8.533-8.533h44.373
		c5.12,0,8.533,3.413,8.533,8.533C470.117,204.73,466.704,208.144,461.584,208.144z"/>
	<path d="M434.277,387.344h-204.8c-5.12,0-8.533-3.413-8.533-8.533s3.413-8.533,8.533-8.533h196.267V302.01H84.41v68.267h76.8
		c5.12,0,8.533,3.413,8.533,8.533s-3.413,8.533-8.533,8.533H75.877c-5.12,0-8.533-3.413-8.533-8.533v-85.333
		c0-5.12,3.413-8.533,8.533-8.533h358.4c5.12,0,8.533,3.413,8.533,8.533v85.333C442.81,383.93,439.397,387.344,434.277,387.344z"/>
	<path d="M101.477,421.477H7.61c-3.413,0-5.973-1.707-7.68-5.12c-1.707-2.56-0.853-6.827,0.853-9.387l29.867-36.693L0.784,332.73
		c-1.707-2.56-2.56-5.973-0.853-9.387c1.707-1.707,4.267-4.267,7.68-4.267h68.267c5.12,0,8.533,3.413,8.533,8.533v42.667h17.067
		c5.12,0,8.533,3.413,8.533,8.533v34.133C110.01,418.064,106.597,421.477,101.477,421.477z M25.53,404.41h67.413v-17.067H75.877
		c-5.12,0-8.533-3.413-8.533-8.533v-42.667H25.53l23.04,29.013c2.56,3.413,2.56,7.68,0,10.24L25.53,404.41z"/>
	<path d="M502.544,421.477h-93.867c-5.12,0-8.533-3.413-8.533-8.533V378.81c0-5.12,3.413-8.533,8.533-8.533h17.067V327.61
		c0-5.12,3.413-8.533,8.533-8.533h68.267c3.413,0,5.973,1.707,7.68,5.12c1.707,2.56,0.853,6.827-0.853,9.387l-29.867,36.693
		l29.867,37.547c1.707,2.56,2.56,5.973,0.853,9.387C508.517,419.77,505.957,421.477,502.544,421.477z M417.21,404.41h67.413
		l-23.04-29.013c-2.56-3.413-2.56-7.68,0-10.24l23.04-29.013H442.81v42.667c0,5.12-3.413,8.533-8.533,8.533H417.21V404.41z"/>
	<path d="M151.824,302.01h-51.2c-1.707,0-3.413-0.853-5.12-1.707c-6.827-5.12-12.8-11.093-17.92-17.067
		c-5.973-6.827-11.093-15.36-14.507-23.893L-0.07,100.624c-1.707-2.56-0.853-5.973,0.853-7.68c1.707-1.707,4.267-4.267,6.827-4.267
		h128c3.413,0,5.973,1.707,7.68,4.267l31.573,55.467c1.707,3.413,1.707,7.68-0.853,10.24c-19.627,20.48-29.867,47.787-29.867,75.093
		c0,19.627,5.12,38.4,14.507,55.467c1.707,2.56,1.707,5.973,0,8.533C157.797,300.304,154.384,302.01,151.824,302.01z
		 M103.184,284.944h34.987c-6.827-16.213-11.093-33.28-11.093-51.2c0-29.867,10.24-58.88,29.867-81.92l-26.453-46.08H20.41
		l58.88,146.773c2.56,6.827,6.827,13.653,11.947,19.627C93.797,277.264,98.064,281.53,103.184,284.944z"/>
	<path d="M409.53,302.01h-51.2c-3.413,0-5.973-1.707-7.68-4.267c-1.707-2.56-1.707-5.973,0-8.533
		c9.387-17.067,14.507-35.84,14.507-55.467c0-28.16-10.24-54.613-29.867-75.093c-2.56-2.56-3.413-6.827-0.853-10.24l31.573-55.467
		c2.56-2.56,5.12-4.267,8.533-4.267h128c2.56,0,5.12,1.707,6.827,3.413c1.707,2.56,1.707,5.12,0.853,7.68l-63.147,159.573
		c-3.413,8.533-8.533,17.067-14.507,23.893c-5.12,5.973-11.093,11.947-17.92,17.067C413.797,302.01,412.09,302.01,409.53,302.01z
		 M371.984,284.944h34.987c5.12-3.413,9.387-7.68,12.8-11.947c5.12-5.973,8.533-12.8,11.947-19.627l58.027-147.627h-110.08
		l-26.453,46.08c19.627,23.04,29.867,52.053,29.867,81.92C383.077,251.664,379.664,269.584,371.984,284.944z"/>
	<g>
		<path style="fill:#110E0E;" d="M358.33,302.01H151.824c-3.413,0-5.973-1.707-7.68-4.267c-11.093-19.627-17.067-41.813-17.067-64
			c0-70.827,57.173-128,128-128s128,57.173,128,128c0,22.187-5.973,44.373-17.067,64C364.304,300.304,361.744,302.01,358.33,302.01z
			 M156.944,284.944H353.21c8.533-16.213,12.8-33.28,12.8-51.2c0-61.44-49.493-110.933-110.933-110.933
			s-110.933,49.493-110.933,110.933C144.144,251.664,148.41,269.584,156.944,284.944z"/>
		<path style="fill:#110E0E;" d="M302.864,302.01H207.29c-1.707,0-4.267-0.853-5.12-1.707c-20.48-16.213-32.427-40.107-32.427-66.56
			c0-46.933,38.4-85.333,85.333-85.333s85.333,38.4,85.333,85.333c0,25.6-11.947,50.347-31.573,66.56
			C307.13,302.01,305.424,302.01,302.864,302.01z M209.85,284.944h90.453c14.507-12.8,23.04-31.573,23.04-51.2
			c0-37.547-30.72-68.267-68.267-68.267s-68.267,30.72-68.267,68.267C186.81,253.37,195.344,272.144,209.85,284.944z"/>
	</g>
	<path d="M203.877,378.81c0-5.12-3.413-8.533-8.533-8.533c-5.12,0-8.533,3.413-8.533,8.533s3.413,8.533,8.533,8.533
		C200.464,387.344,203.877,383.93,203.877,378.81"/>
</g>
<g>
</g>
<g>
</g>
<g>
</g>
<g>
</g>
<g>
</g>
<g>
</g>
<g>
</g>
<g>
</g>
<g>
</g>
<g>
</g>
<g>
</g>
<g>
</g>
<g>
</g>
<g>
</g>
<g>
</g>
</svg>
